<svg width="24" height="24" viewBox="0 0 24 24" fill="none" xmlns="http://www.w3.org/2000/svg" preserveAspectRatio="xMinYMid meet">
<path fill-rule="evenodd" clip-rule="evenodd" d="M4.5 4.75C3.5335 4.75 2.75 5.5335 2.75 6.5V17.5C2.75 18.4665 3.5335 19.25 4.5 19.25H19.5C20.4665 19.25 21.25 18.4665 21.25 17.5V6.5C21.25 5.5335 20.4665 4.75 19.5 4.75H4.5ZM4.25 6.5C4.25 6.36193 4.36193 6.25 4.5 6.25H19.5C19.6381 6.25 19.75 6.36193 19.75 6.5V17.5C19.75 17.6381 19.6381 17.75 19.5 17.75H4.5C4.36193 17.75 4.25 17.6381 4.25 17.5V6.5ZM10.0858 8.90983C9.83614 8.76516 9.52832 8.76451 9.27803 8.90812C9.02774 9.05173 8.87341 9.31812 8.87341 9.60663V14.3934C8.87341 14.6819 9.02774 14.9483 9.27803 15.0919C9.52832 15.2355 9.83614 15.2348 10.0858 15.0902L14.2144 12.6968C14.4631 12.5527 14.6163 12.2871 14.6163 12C14.6163 11.7129 14.4631 11.4473 14.2144 11.3032L10.0858 8.90983ZM10.3734 13.0894V10.9106L12.2529 12L10.3734 13.0894Z" fill="#212529"/>
</svg>
